<svg xmlns="http://www.w3.org/2000/svg" viewBox="0 0 544 544"><defs><style>.cls-1{stroke:#000;}.cls-1,.cls-2,.cls-3{stroke-linecap:round;stroke-linejoin:round;stroke-width:32px;}.cls-2{fill:none;stroke:#fff;}.cls-3{fill:#aa0040;stroke:#898989;}</style></defs><g id="Bg"><rect class="cls-1" x="16" y="16" width="512" height="512"/></g><g id="Layer_1" data-name="Layer 1"><rect class="cls-2" x="87" y="87" width="156.54" height="156.54" rx="17.79"/><rect class="cls-2" x="300.46" y="87" width="156.54" height="156.54" rx="17.79"/><rect class="cls-2" x="87" y="300.46" width="156.54" height="156.54" rx="17.79"/><rect class="cls-2" x="300.46" y="300.46" width="156.54" height="156.54" rx="17.79"/><polygon class="cls-3" points="327.23 204.21 173.22 358.56 160.43 383.57 185.44 370.79 339.8 216.78 327.23 204.21"/><path class="cls-3" d="M352.39,147l-12.57,12.57,12.57,12.57L365,159.61A8.89,8.89,0,0,0,365,147h0A8.89,8.89,0,0,0,352.39,147Z" transform="translate(16 16)"/></g></svg>