<svg id="Layer_1" data-name="Layer 1" xmlns="http://www.w3.org/2000/svg" viewBox="0 0 195.6 158.68"><defs><style>.cls-1{opacity:0.5;}</style></defs><path d="M58.24,143.34l.49-.74a18.36,18.36,0,0,1,4.33-4.78,9.45,9.45,0,0,1,6.65-2,32.09,32.09,0,0,1,3.29.6c.07-.6.14-1.29.23-2,.36-3,.72-6,1.1-9,.22-1.75.42-3.5.72-5.24a21.18,21.18,0,0,1,5-10,22.53,22.53,0,0,1,8-6.18,14.67,14.67,0,0,1,6-1.41c3.67,0,6.34,2,7,5.34a12.65,12.65,0,0,1-.21,5.61c-.54,2.18-1.21,4.34-1.75,6.52a48.19,48.19,0,0,0-1.34,8.76c-.12,1.89-.22,3.79-.22,5.68a98.86,98.86,0,0,0,.6,10.32c.42,4,.94,8.08,1.73,12.08.65,3.26,1.46,6.5,2.19,9.75,0,.08.06.16.11.32a3.85,3.85,0,0,0,.81-.27,68.1,68.1,0,0,1,13.9-6.43,38.73,38.73,0,0,1,12.15-2,19.81,19.81,0,0,1,11.63,3.52,13.78,13.78,0,0,1,5.89,9.11,7.37,7.37,0,0,1-3.58,8,10.86,10.86,0,0,1-5,1.51c-2.21.17-4.44.21-6.66.39a38.23,38.23,0,0,0-10.36,2,14.9,14.9,0,0,0-6,4.1c-1.66,1.84-3.28,3.72-5,5.52a63.83,63.83,0,0,1-7.78,7.17,28.46,28.46,0,0,1-11.43,5.28,21.57,21.57,0,0,1-5.56.42,1.34,1.34,0,0,0-.73.2,22.7,22.7,0,0,1-9.3,3A28.24,28.24,0,0,1,61,206a32.52,32.52,0,0,1-10.33-7,27.56,27.56,0,0,1-6.61-11.2,36.48,36.48,0,0,1-1.39-6.51.6.6,0,0,0-.33-.39,23.85,23.85,0,0,1-6.47-4.27A14.9,14.9,0,0,1,31,168a18.39,18.39,0,0,1,.72-8.36,19.24,19.24,0,0,1,2.3-5.06,9.87,9.87,0,0,1,5.86-4.35,7.13,7.13,0,0,1,3.31-.15.46.46,0,0,0,.58-.28,16,16,0,0,1,4.15-5,10,10,0,0,1,10-1.54ZM98,167.46c-.35-1.44-.71-2.85-1-4.27-.89-3.86-1.6-7.74-2.1-11.65-.41-3.19-.8-6.39-1.09-9.59a69.2,69.2,0,0,1-.28-9.44c.12-2.46.26-4.92.53-7.37a52.85,52.85,0,0,1,2.25-10.26,13.37,13.37,0,0,0,.77-5.64,4.89,4.89,0,0,0-.27-1.19c-.53-1.38-1.47-1.73-3.17-1.58a12,12,0,0,0-4.72,1.61,19.48,19.48,0,0,0-8.92,10.36,23.88,23.88,0,0,0-1.16,5.27c-.62,4.12-1.3,8.23-1.62,12.38a39.34,39.34,0,0,0,.24,9.14c.51,3.24,1.15,6.46,1.78,9.68s1.44,6.46,1.76,9.76a19.82,19.82,0,0,1-.45,7.23,10.79,10.79,0,0,1-4.32,6.27,11.46,11.46,0,0,1-9.79,1.45,33.44,33.44,0,0,1-3.32-1.24c-.28.26-.62.61-1,.94-3,2.74-8,3.65-11.51,1.86a.46.46,0,0,0-.32,0,11.57,11.57,0,0,1-3.17.93,1.09,1.09,0,0,0,0,.17c.16.81.29,1.62.48,2.43a24.74,24.74,0,0,0,11.93,16.15,26,26,0,0,0,13.82,3.92,17.94,17.94,0,0,0,9.74-3,2.68,2.68,0,0,1,1.42-.45,11.12,11.12,0,0,1,1.29,0,11.2,11.2,0,0,0,3.32-.09,25.19,25.19,0,0,0,12.13-5.85,119.4,119.4,0,0,0,10.34-10.53,20.28,20.28,0,0,1,3-2.95,21.41,21.41,0,0,1,7.72-3.54,53.8,53.8,0,0,1,13-1.58,19.61,19.61,0,0,0,3.43-.29c2.58-.47,3.88-2,3.85-4.38a8.1,8.1,0,0,0-2.11-5.32c-2.7-3.12-6.32-4.52-10.59-4.69a31,31,0,0,0-8.48.93,48.45,48.45,0,0,0-14.28,6c-.52.32-1.06.64-1.61.92a5.57,5.57,0,0,1-2.27.69,22.49,22.49,0,0,0-7.36,1.58,32.67,32.67,0,0,0-11.48,7.94,39.9,39.9,0,0,0-4.69,5.81,1.92,1.92,0,0,1-1.42.93,2.29,2.29,0,0,1-2.26-.93,1.61,1.61,0,0,1,.08-2,44.77,44.77,0,0,1,7.93-8.94,36.36,36.36,0,0,1,11.29-6.77C96.11,168,97,167.75,98,167.46ZM77,166.88a28.67,28.67,0,0,0-.75-5.75c-.47-2.08-1-4.16-1.4-6.25-.46-2.39-.84-4.79-1.2-7.19-.32-2.18-.56-4.37-.85-6.56a.67.67,0,0,0-.27-.4,5.59,5.59,0,0,0-6.94.17,15.21,15.21,0,0,0-4.67,6.24,26.3,26.3,0,0,0-1.94,9.2,26.61,26.61,0,0,0,.26,5.71,33.28,33.28,0,0,0,3,9c.32.65.71,1.27,1.08,1.89A6.62,6.62,0,0,0,69,176.16a6.47,6.47,0,0,0,6.27-2.85A11.35,11.35,0,0,0,77,166.88ZM56.43,146.82c-.41-.1-.87-.26-1.36-.34a5.46,5.46,0,0,0-4.42,1.24,13.36,13.36,0,0,0-4,5.78,22.61,22.61,0,0,0-.92,13.6,21.68,21.68,0,0,0,4.94,9.26,5.15,5.15,0,0,0,4.08,1.91,6.78,6.78,0,0,0,5.3-2.68.4.4,0,0,0,0-.38c-.23-.38-.51-.75-.75-1.13a31.28,31.28,0,0,1-4-22C55.53,150.31,56,148.61,56.43,146.82Zm-9.64,31.42.05-.09c-6-7.35-7.23-15.5-4.86-24.27a3.55,3.55,0,0,0-2.68.81,7.59,7.59,0,0,0-1.93,2.38,20.13,20.13,0,0,0-2.23,7.32,10.32,10.32,0,0,0,1.23,6.42c2.07,3.55,5.4,5.75,9.37,7.24A6.07,6.07,0,0,0,46.79,178.24Z" transform="translate(-30.83 -49.94)"/><path d="M199,115.25l-.49.74a18.17,18.17,0,0,1-4.33,4.77,9.54,9.54,0,0,1-6.66,2c-1.1-.1-2.17-.4-3.29-.61-.07.59-.14,1.29-.23,2-.37,3-.73,6-1.11,9-.23,1.75-.43,3.5-.74,5.23a21.11,21.11,0,0,1-5,10,22.6,22.6,0,0,1-8.06,6.16,14.51,14.51,0,0,1-6,1.41c-3.67,0-6.34-2.05-7-5.36a12.51,12.51,0,0,1,.22-5.61c.54-2.18,1.21-4.33,1.76-6.51a48.21,48.21,0,0,0,1.35-8.76c.12-1.89.23-3.79.23-5.68A98.84,98.84,0,0,0,159,113.7c-.42-4-.93-8.08-1.72-12.08-.64-3.27-1.44-6.51-2.17-9.76,0-.08-.06-.16-.11-.32a3.85,3.85,0,0,0-.81.27,67,67,0,0,1-13.91,6.4,38.73,38.73,0,0,1-12.15,2,19.7,19.7,0,0,1-11.62-3.54,13.71,13.71,0,0,1-5.88-9.12,7.37,7.37,0,0,1,3.59-8,11,11,0,0,1,5-1.49c2.22-.17,4.45-.21,6.66-.38a38.36,38.36,0,0,0,10.37-2,15,15,0,0,0,6-4.09c1.67-1.84,3.29-3.71,5-5.51A63,63,0,0,1,155,58.9a28.36,28.36,0,0,1,11.44-5.27,22,22,0,0,1,5.56-.42,1.25,1.25,0,0,0,.73-.19,22.83,22.83,0,0,1,9.31-3,28.2,28.2,0,0,1,14.24,2.51,32.5,32.5,0,0,1,10.32,7,27.64,27.64,0,0,1,6.6,11.21,36.53,36.53,0,0,1,1.37,6.52.61.61,0,0,0,.33.38A24.06,24.06,0,0,1,221.41,82a15,15,0,0,1,4.83,8.65A18.57,18.57,0,0,1,225.5,99a19.21,19.21,0,0,1-2.31,5.05,9.88,9.88,0,0,1-5.87,4.34,7.22,7.22,0,0,1-3.3.15.47.47,0,0,0-.59.27,16,16,0,0,1-4.15,5,10,10,0,0,1-10,1.52ZM159.31,91.07c.34,1.44.7,2.85,1,4.27.87,3.86,1.58,7.74,2.08,11.66.41,3.19.78,6.38,1.07,9.58a67.77,67.77,0,0,1,.26,9.45c-.12,2.46-.26,4.92-.53,7.36A53.32,53.32,0,0,1,161,143.65a13.22,13.22,0,0,0-.78,5.64,4.89,4.89,0,0,0,.27,1.19c.52,1.38,1.46,1.74,3.17,1.58a11.92,11.92,0,0,0,4.72-1.6,19.56,19.56,0,0,0,8.94-10.34,24.46,24.46,0,0,0,1.16-5.27c.63-4.12,1.31-8.23,1.64-12.38a38.81,38.81,0,0,0-.22-9.14c-.51-3.24-1.14-6.46-1.77-9.68s-1.43-6.47-1.75-9.76a19.8,19.8,0,0,1,.47-7.23,10.76,10.76,0,0,1,4.33-6.27A11.46,11.46,0,0,1,190.92,79a31.2,31.2,0,0,1,3.32,1.25c.28-.27.62-.62,1-.94,3.05-2.74,8-3.64,11.52-1.84a.47.47,0,0,0,.33,0,11.39,11.39,0,0,1,3.16-.92.51.51,0,0,0,0-.17c-.15-.81-.28-1.62-.47-2.43a24.73,24.73,0,0,0-11.9-16.17,26.06,26.06,0,0,0-13.82-3.94,18,18,0,0,0-9.75,2.93,2.65,2.65,0,0,1-1.42.45,11,11,0,0,1-1.28,0,11.61,11.61,0,0,0-3.33.08,25.3,25.3,0,0,0-12.13,5.83A118.15,118.15,0,0,0,145.78,73.6a21.32,21.32,0,0,1-3,2.94,21.56,21.56,0,0,1-7.72,3.53,53.78,53.78,0,0,1-13,1.56,20.74,20.74,0,0,0-3.44.28c-2.58.47-3.87,2-3.86,4.38a8.15,8.15,0,0,0,2.11,5.32c2.69,3.12,6.31,4.54,10.58,4.71A31.39,31.39,0,0,0,136,95.4a48.37,48.37,0,0,0,14.3-6c.52-.32,1-.63,1.6-.91a5.46,5.46,0,0,1,2.28-.69,22.48,22.48,0,0,0,7.36-1.57A32.66,32.66,0,0,0,173,78.29a40.56,40.56,0,0,0,4.7-5.8,1.91,1.91,0,0,1,1.43-.93,2.3,2.3,0,0,1,2.25.93,1.63,1.63,0,0,1-.08,2,44.82,44.82,0,0,1-8,8.93,36.05,36.05,0,0,1-11.3,6.75C161.16,90.53,160.23,90.78,159.31,91.07Zm20.95.61a29.4,29.4,0,0,0,.74,5.75c.46,2.09,1,4.16,1.39,6.26.45,2.38.84,4.78,1.19,7.18.32,2.19.55,4.38.84,6.56a.67.67,0,0,0,.27.41,5.59,5.59,0,0,0,6.94-.16,15.2,15.2,0,0,0,4.68-6.23A30,30,0,0,0,198,96.54a32.91,32.91,0,0,0-3-9,19.76,19.76,0,0,0-1.08-1.9,6.57,6.57,0,0,0-5.59-3.23A6.48,6.48,0,0,0,182,85.25,11.38,11.38,0,0,0,180.26,91.68Zm20.55,20.09a10.8,10.8,0,0,0,1.36.34,5.43,5.43,0,0,0,4.42-1.23,13.36,13.36,0,0,0,4.06-5.77,22.6,22.6,0,0,0,.94-13.6,21.64,21.64,0,0,0-4.93-9.27,5.11,5.11,0,0,0-4.07-1.91A6.8,6.8,0,0,0,197.28,83a.45.45,0,0,0,0,.39c.23.38.51.75.75,1.13a31.23,31.23,0,0,1,4,22C201.71,108.28,201.22,110,200.81,111.77Zm9.68-31.4,0,.09c6,7.36,7.21,15.51,4.82,24.28a3.55,3.55,0,0,0,2.68-.81,7.48,7.48,0,0,0,1.93-2.38,20.05,20.05,0,0,0,2.25-7.31,10.24,10.24,0,0,0-1.23-6.42c-2.06-3.56-5.38-5.77-9.35-7.26A6,6,0,0,0,210.49,80.37Z" transform="translate(-30.83 -49.94)"/><g class="cls-1"><path d="M141.33,122.53c-.46.82-.85,1.61-1.32,2.34a17.14,17.14,0,0,1-1.34,1.74,2.1,2.1,0,0,1-2.09.68,8.5,8.5,0,0,1-4-2,8.75,8.75,0,0,1-3.2-6.16,9.79,9.79,0,0,1,1.61-7,6.42,6.42,0,0,1,4.49-2.52,17.38,17.38,0,0,1,1.91-.18,24.06,24.06,0,0,1,7.16.95c.89.23,1.79.46,2.67.72a6.2,6.2,0,0,1,3.06,2.27,17.68,17.68,0,0,1,3.37,7.09,19.66,19.66,0,0,1,.51,5.87,12.37,12.37,0,0,1-1.93,6.15,14.1,14.1,0,0,1-3.21,3.33,17.93,17.93,0,0,0-3.51,3.17,1.53,1.53,0,0,0,.58,2.57l.28.16a1.17,1.17,0,0,1,.27,2,4.08,4.08,0,0,1-2.4,1.15c-.63.09-1-.38-1.29-.76a8.35,8.35,0,0,1-1.79-3.39,3.42,3.42,0,0,1,.77-3.22l2.36-2.82a4.6,4.6,0,0,0,.46-.69,1.11,1.11,0,0,0-1-1.74,3.67,3.67,0,0,0-1.54.33c-1.29.61-2.57,1.27-3.8,2a3.35,3.35,0,0,0-1.41,2.09,9,9,0,0,0-.38,3.81,19.19,19.19,0,0,0,.88,2.92c.16.54.34,1.08.45,1.63a.85.85,0,0,1-.67,1.13,8.85,8.85,0,0,1-1.74.37,16.84,16.84,0,0,1-5.44-.29c-1-.25-1.13-.38-.94-1.46a18.66,18.66,0,0,0,.49-4.59,6,6,0,0,0-.85-2.82,1.57,1.57,0,0,0-2-.68,7.46,7.46,0,0,1-3.22.62,6.2,6.2,0,0,1-3.32-.91c-1.11-.78-2.19.15-2.58,1a3.76,3.76,0,0,0-.14,2.7c.41,1.3.9,2.57,1.36,3.85.15.4.33.8.46,1.2s0,.87-.49,1a9.33,9.33,0,0,1-2,.37,42.86,42.86,0,0,1-4.39,0,4.85,4.85,0,0,1-3.23-1.25,1.7,1.7,0,0,1-.51-1.42c.13-1.24.33-2.48.48-3.72s.24-2.18.33-3.28c.06-.62.09-1.25.1-1.88a3.15,3.15,0,0,0-1-2.39,12.25,12.25,0,0,1-2.54-4.08c-.41-1-.68-2-1-3a2.32,2.32,0,0,0-.28-.44,2,2,0,0,0-.44.31c-.48.58-.94,1.17-1.42,1.75a1.3,1.3,0,0,1-.38.32c-.17.09-.45.24-.51.19a.94.94,0,0,1-.28-.59,8.64,8.64,0,0,1,.71-3.35,20.21,20.21,0,0,1,3.38-6,17.18,17.18,0,0,1,5.22-4.45,19.86,19.86,0,0,1,6.19-2.13,23.71,23.71,0,0,1,5.32-.3,25,25,0,0,1,4.71.63c1.12.28,1,.42.91,1.5s-.47,2.06-.6,3.1a11.44,11.44,0,0,0,0,2.55,13.49,13.49,0,0,0,1.06,4,9,9,0,0,0,5.16,4.9,9.16,9.16,0,0,0,3.88.53,2.94,2.94,0,0,0,2.58-2,32,32,0,0,0,1-3.09A2,2,0,0,0,141.33,122.53Zm8.23.51a1,1,0,0,0-1.08-1.18,1.16,1.16,0,1,0-.06,2.31A1,1,0,0,0,149.56,123Z" transform="translate(-30.83 -49.94)"/></g></svg>